<svg xmlns="http://www.w3.org/2000/svg" xmlns:xlink="http://www.w3.org/1999/xlink" width="500" zoomAndPan="magnify" viewBox="0 0 375 374.999991" height="500" preserveAspectRatio="xMidYMid meet" version="1.0"><defs><g/><clipPath id="284a61af5f"><path d="M 70.902344 12.335938 L 304.152344 12.335938 L 304.152344 245.585938 L 70.902344 245.585938 Z M 70.902344 12.335938 " clip-rule="nonzero"/></clipPath><clipPath id="4c1bb5bcb3"><rect x="0" width="325" y="0" height="125"/></clipPath><clipPath id="80e0001a55"><rect x="0" width="152" y="0" height="28"/></clipPath></defs><g clip-path="url(#284a61af5f)"><path fill="#000000" d="M 304.144531 12.335938 L 304.144531 245.574219 L 231.207031 245.574219 L 231.207031 136.851562 L 122.476562 245.574219 L 70.902344 194 L 179.628906 85.277344 L 70.902344 85.277344 L 70.902344 12.335938 Z M 304.144531 12.335938 " fill-opacity="1" fill-rule="nonzero"/></g><g transform="matrix(1, 0, 0, 1, 25, 226)"><g clip-path="url(#4c1bb5bcb3)"><g fill="#000000" fill-opacity="1"><g transform="translate(0.782228, 96.228239)"><g><path d="M 6.8125 -61.5 L 23.09375 -61.5 L 23.09375 -13.625 L 46.359375 -13.625 L 46.359375 0 L 6.8125 0 Z M 6.8125 -61.5 "/></g></g></g><g fill="#000000" fill-opacity="1"><g transform="translate(50.93139, 96.228239)"><g><path d="M 6.8125 -61.5 L 23.09375 -61.5 L 23.09375 0 L 6.8125 0 Z M 6.8125 -61.5 "/></g></g></g><g fill="#000000" fill-opacity="1"><g transform="translate(80.831657, 96.228239)"><g><path d="M 6.8125 -61.5 L 46.9375 -61.5 L 46.9375 -47.875 L 23.09375 -47.875 L 23.09375 -36.140625 L 43.53125 -36.140625 L 43.53125 -22.515625 L 23.09375 -22.515625 L 23.09375 0 L 6.8125 0 Z M 6.8125 -61.5 "/></g></g></g><g fill="#000000" fill-opacity="1"><g transform="translate(131.548559, 96.228239)"><g><path d="M 6.8125 -61.5 L 46.5625 -61.5 L 46.5625 -47.875 L 23.09375 -47.875 L 23.09375 -38.234375 L 43.15625 -38.234375 L 43.15625 -24.609375 L 23.09375 -24.609375 L 23.09375 -13.625 L 47.5 -13.625 L 47.5 0 L 6.8125 0 Z M 6.8125 -61.5 "/></g></g></g><g fill="#000000" fill-opacity="1"><g transform="translate(184.15788, 96.228239)"><g/></g></g><g fill="#000000" fill-opacity="1"><g transform="translate(203.082096, 96.228239)"><g><path d="M 31.984375 1.140625 C 23.335938 1.140625 16.914062 -1.378906 12.71875 -6.421875 C 8.53125 -11.472656 6.4375 -19.238281 6.4375 -29.71875 L 6.4375 -61.5 L 22.703125 -61.5 L 22.703125 -27.8125 C 22.703125 -22.394531 23.425781 -18.550781 24.875 -16.28125 C 26.332031 -14.007812 28.703125 -12.875 31.984375 -12.875 C 35.265625 -12.875 37.660156 -14.023438 39.171875 -16.328125 C 40.691406 -18.628906 41.453125 -22.457031 41.453125 -27.8125 L 41.453125 -61.5 L 57.15625 -61.5 L 57.15625 -29.71875 C 57.15625 -19.175781 55.101562 -11.394531 51 -6.375 C 46.90625 -1.363281 40.566406 1.140625 31.984375 1.140625 Z M 31.984375 1.140625 "/></g></g></g><g fill="#000000" fill-opacity="1"><g transform="translate(266.667483, 96.228239)"><g><path d="M 6.8125 -61.5 L 29.328125 -61.5 C 36.773438 -61.5 42.800781 -59.90625 47.40625 -56.71875 C 52.007812 -53.539062 54.3125 -48.320312 54.3125 -41.0625 C 54.3125 -36.269531 53.191406 -32.25 50.953125 -29 C 48.710938 -25.75 45.734375 -23.351562 42.015625 -21.8125 C 38.296875 -20.269531 34.195312 -19.5 29.71875 -19.5 L 23.09375 -19.5 L 23.09375 0 L 6.8125 0 Z M 28.953125 -32.359375 C 32.109375 -32.359375 34.472656 -33.113281 36.046875 -34.625 C 37.628906 -36.144531 38.421875 -38.289062 38.421875 -41.0625 C 38.421875 -43.71875 37.582031 -45.644531 35.90625 -46.84375 C 34.238281 -48.039062 31.796875 -48.640625 28.578125 -48.640625 L 23.09375 -48.640625 L 23.09375 -32.359375 Z M 28.953125 -32.359375 "/></g></g></g></g></g><g transform="matrix(1, 0, 0, 1, 113, 335)"><g clip-path="url(#80e0001a55)"><g fill="#000000" fill-opacity="1"><g transform="translate(0.492193, 22.842947)"><g><path d="M 9.71875 -7.9375 C 9.632812 -7.894531 9.632812 -7.851562 9.71875 -7.8125 C 10.488281 -7.488281 11.070312 -7.015625 11.46875 -6.390625 C 11.875 -5.765625 12.078125 -5.007812 12.078125 -4.125 C 12.078125 -2.820312 11.65625 -1.804688 10.8125 -1.078125 C 9.976562 -0.359375 8.882812 0 7.53125 0 L 2.328125 0 C 2.140625 0 2.046875 -0.09375 2.046875 -0.28125 L 2.046875 -14.9375 C 2.046875 -15.125 2.140625 -15.21875 2.328125 -15.21875 L 7.375 -15.21875 C 8.78125 -15.21875 9.882812 -14.867188 10.6875 -14.171875 C 11.488281 -13.484375 11.890625 -12.507812 11.890625 -11.25 C 11.890625 -10.445312 11.703125 -9.769531 11.328125 -9.21875 C 10.960938 -8.664062 10.425781 -8.238281 9.71875 -7.9375 Z M 3.703125 -13.875 C 3.628906 -13.875 3.59375 -13.835938 3.59375 -13.765625 L 3.59375 -8.59375 C 3.59375 -8.519531 3.628906 -8.484375 3.703125 -8.484375 L 7.375 -8.484375 C 8.289062 -8.484375 9.019531 -8.722656 9.5625 -9.203125 C 10.101562 -9.679688 10.375 -10.316406 10.375 -11.109375 C 10.375 -11.953125 10.101562 -12.625 9.5625 -13.125 C 9.019531 -13.625 8.289062 -13.875 7.375 -13.875 Z M 7.53125 -1.375 C 8.4375 -1.375 9.160156 -1.632812 9.703125 -2.15625 C 10.253906 -2.675781 10.53125 -3.378906 10.53125 -4.265625 C 10.53125 -5.148438 10.25 -5.851562 9.6875 -6.375 C 9.132812 -6.90625 8.382812 -7.171875 7.4375 -7.171875 L 3.703125 -7.171875 C 3.628906 -7.171875 3.59375 -7.132812 3.59375 -7.0625 L 3.59375 -1.484375 C 3.59375 -1.410156 3.628906 -1.375 3.703125 -1.375 Z M 7.53125 -1.375 "/></g></g></g><g fill="#000000" fill-opacity="1"><g transform="translate(16.677705, 22.842947)"><g><path d="M 5.671875 -0.015625 C 5.484375 -0.015625 5.390625 -0.109375 5.390625 -0.296875 L 5.390625 -6.671875 C 5.390625 -6.703125 5.375 -6.75 5.34375 -6.8125 L 0.890625 -14.875 C 0.859375 -14.957031 0.84375 -15.007812 0.84375 -15.03125 C 0.84375 -15.082031 0.863281 -15.125 0.90625 -15.15625 C 0.957031 -15.195312 1.019531 -15.21875 1.09375 -15.21875 L 2.125 -15.21875 C 2.289062 -15.21875 2.398438 -15.15625 2.453125 -15.03125 L 6.09375 -8.453125 C 6.132812 -8.398438 6.175781 -8.398438 6.21875 -8.453125 L 9.875 -15.03125 C 9.945312 -15.15625 10.054688 -15.21875 10.203125 -15.21875 L 11.25 -15.21875 C 11.363281 -15.21875 11.4375 -15.1875 11.46875 -15.125 C 11.507812 -15.0625 11.5 -14.976562 11.4375 -14.875 L 6.984375 -6.8125 C 6.953125 -6.75 6.9375 -6.703125 6.9375 -6.671875 L 6.9375 -0.296875 C 6.9375 -0.109375 6.84375 -0.015625 6.65625 -0.015625 Z M 5.671875 -0.015625 "/></g></g></g><g fill="#000000" fill-opacity="1"><g transform="translate(31.558053, 22.842947)"><g/></g></g><g fill="#000000" fill-opacity="1"><g transform="translate(38.455108, 22.842947)"><g><path d="M 5.671875 -0.015625 C 5.484375 -0.015625 5.390625 -0.109375 5.390625 -0.296875 L 5.390625 -6.671875 C 5.390625 -6.703125 5.375 -6.75 5.34375 -6.8125 L 0.890625 -14.875 C 0.859375 -14.957031 0.84375 -15.007812 0.84375 -15.03125 C 0.84375 -15.082031 0.863281 -15.125 0.90625 -15.15625 C 0.957031 -15.195312 1.019531 -15.21875 1.09375 -15.21875 L 2.125 -15.21875 C 2.289062 -15.21875 2.398438 -15.15625 2.453125 -15.03125 L 6.09375 -8.453125 C 6.132812 -8.398438 6.175781 -8.398438 6.21875 -8.453125 L 9.875 -15.03125 C 9.945312 -15.15625 10.054688 -15.21875 10.203125 -15.21875 L 11.25 -15.21875 C 11.363281 -15.21875 11.4375 -15.1875 11.46875 -15.125 C 11.507812 -15.0625 11.5 -14.976562 11.4375 -14.875 L 6.984375 -6.8125 C 6.953125 -6.75 6.9375 -6.703125 6.9375 -6.671875 L 6.9375 -0.296875 C 6.9375 -0.109375 6.84375 -0.015625 6.65625 -0.015625 Z M 5.671875 -0.015625 "/></g></g></g><g fill="#000000" fill-opacity="1"><g transform="translate(53.335456, 22.842947)"><g><path d="M 7.046875 0.171875 C 6.035156 0.171875 5.132812 -0.03125 4.34375 -0.4375 C 3.5625 -0.84375 2.953125 -1.410156 2.515625 -2.140625 C 2.085938 -2.867188 1.875 -3.722656 1.875 -4.703125 L 1.875 -14.9375 C 1.875 -15.125 1.96875 -15.21875 2.15625 -15.21875 L 3.125 -15.21875 C 3.320312 -15.21875 3.421875 -15.125 3.421875 -14.9375 L 3.421875 -4.65625 C 3.421875 -3.625 3.753906 -2.785156 4.421875 -2.140625 C 5.085938 -1.492188 5.960938 -1.171875 7.046875 -1.171875 C 8.128906 -1.171875 9.003906 -1.492188 9.671875 -2.140625 C 10.335938 -2.785156 10.671875 -3.625 10.671875 -4.65625 L 10.671875 -14.9375 C 10.671875 -15.125 10.769531 -15.21875 10.96875 -15.21875 L 11.9375 -15.21875 C 12.125 -15.21875 12.21875 -15.125 12.21875 -14.9375 L 12.21875 -4.703125 C 12.21875 -3.722656 12.003906 -2.867188 11.578125 -2.140625 C 11.148438 -1.410156 10.546875 -0.84375 9.765625 -0.4375 C 8.984375 -0.03125 8.078125 0.171875 7.046875 0.171875 Z M 7.046875 0.171875 "/></g></g></g><g fill="#000000" fill-opacity="1"><g transform="translate(69.977781, 22.842947)"><g><path d="M 2.328125 0 C 2.140625 0 2.046875 -0.09375 2.046875 -0.28125 L 2.046875 -14.9375 C 2.046875 -15.125 2.140625 -15.21875 2.328125 -15.21875 L 3.3125 -15.21875 C 3.5 -15.21875 3.59375 -15.125 3.59375 -14.9375 L 3.59375 -7.671875 C 3.59375 -7.628906 3.601562 -7.597656 3.625 -7.578125 C 3.65625 -7.566406 3.6875 -7.585938 3.71875 -7.640625 L 10.546875 -15.078125 C 10.628906 -15.171875 10.742188 -15.21875 10.890625 -15.21875 L 11.984375 -15.21875 C 12.140625 -15.21875 12.21875 -15.160156 12.21875 -15.046875 C 12.21875 -14.992188 12.191406 -14.9375 12.140625 -14.875 L 6.890625 -8.9375 C 6.847656 -8.882812 6.84375 -8.832031 6.875 -8.78125 L 12.59375 -0.34375 C 12.632812 -0.289062 12.65625 -0.234375 12.65625 -0.171875 C 12.65625 -0.0546875 12.578125 0 12.421875 0 L 11.28125 0 C 11.144531 0 11.03125 -0.0546875 10.9375 -0.171875 L 5.828125 -7.671875 C 5.765625 -7.765625 5.710938 -7.773438 5.671875 -7.703125 L 3.625 -5.546875 C 3.601562 -5.484375 3.59375 -5.429688 3.59375 -5.390625 L 3.59375 -0.28125 C 3.59375 -0.09375 3.5 0 3.3125 0 Z M 2.328125 0 "/></g></g></g><g fill="#000000" fill-opacity="1"><g transform="translate(85.815257, 22.842947)"><g><path d="M 2.328125 0 C 2.140625 0 2.046875 -0.09375 2.046875 -0.28125 L 2.046875 -14.9375 C 2.046875 -15.125 2.140625 -15.21875 2.328125 -15.21875 L 3.3125 -15.21875 C 3.5 -15.21875 3.59375 -15.125 3.59375 -14.9375 L 3.59375 -0.28125 C 3.59375 -0.09375 3.5 0 3.3125 0 Z M 2.328125 0 "/></g></g></g><g fill="#000000" fill-opacity="1"><g transform="translate(93.995733, 22.842947)"><g/></g></g><g fill="#000000" fill-opacity="1"><g transform="translate(100.892788, 22.842947)"><g><path d="M 2.328125 0 C 2.140625 0 2.046875 -0.09375 2.046875 -0.28125 L 2.046875 -14.9375 C 2.046875 -15.125 2.140625 -15.21875 2.328125 -15.21875 L 3.3125 -15.21875 C 3.5 -15.21875 3.59375 -15.125 3.59375 -14.9375 L 3.59375 -0.28125 C 3.59375 -0.09375 3.5 0 3.3125 0 Z M 2.328125 0 "/></g></g></g><g fill="#000000" fill-opacity="1"><g transform="translate(109.073264, 22.842947)"><g><path d="M 2.328125 0 C 2.140625 0 2.046875 -0.09375 2.046875 -0.28125 L 2.046875 -14.9375 C 2.046875 -15.125 2.140625 -15.21875 2.328125 -15.21875 L 3.34375 -15.21875 C 3.476562 -15.21875 3.585938 -15.15625 3.671875 -15.03125 L 7.65625 -8.75 C 7.695312 -8.65625 7.738281 -8.65625 7.78125 -8.75 L 11.78125 -15.03125 C 11.875 -15.15625 11.984375 -15.21875 12.109375 -15.21875 L 13.140625 -15.21875 C 13.328125 -15.21875 13.421875 -15.125 13.421875 -14.9375 L 13.421875 -0.28125 C 13.421875 -0.09375 13.328125 0 13.140625 0 L 12.15625 0 C 11.96875 0 11.875 -0.09375 11.875 -0.28125 L 11.875 -12.28125 C 11.875 -12.34375 11.859375 -12.375 11.828125 -12.375 C 11.796875 -12.375 11.769531 -12.351562 11.75 -12.3125 L 8.3125 -6.875 C 8.21875 -6.738281 8.109375 -6.671875 7.984375 -6.671875 L 7.484375 -6.671875 C 7.347656 -6.671875 7.238281 -6.738281 7.15625 -6.875 L 3.71875 -12.3125 C 3.6875 -12.351562 3.65625 -12.375 3.625 -12.375 C 3.601562 -12.375 3.59375 -12.34375 3.59375 -12.28125 L 3.59375 -0.28125 C 3.59375 -0.09375 3.5 0 3.3125 0 Z M 2.328125 0 "/></g></g></g><g fill="#000000" fill-opacity="1"><g transform="translate(127.08603, 22.842947)"><g><path d="M 11.109375 0 C 10.953125 0 10.851562 -0.078125 10.8125 -0.234375 L 9.9375 -2.890625 C 9.90625 -2.953125 9.867188 -2.984375 9.828125 -2.984375 L 3.34375 -2.984375 C 3.300781 -2.984375 3.265625 -2.953125 3.234375 -2.890625 L 2.390625 -0.234375 C 2.347656 -0.078125 2.25 0 2.09375 0 L 1.046875 0 C 0.941406 0 0.867188 -0.0234375 0.828125 -0.078125 C 0.785156 -0.140625 0.78125 -0.222656 0.8125 -0.328125 L 5.59375 -14.984375 C 5.632812 -15.140625 5.734375 -15.21875 5.890625 -15.21875 L 7.28125 -15.21875 C 7.445312 -15.21875 7.550781 -15.140625 7.59375 -14.984375 L 12.390625 -0.328125 C 12.410156 -0.296875 12.421875 -0.257812 12.421875 -0.21875 C 12.421875 -0.15625 12.394531 -0.101562 12.34375 -0.0625 C 12.289062 -0.0195312 12.226562 0 12.15625 0 Z M 3.71875 -4.375 C 3.707031 -4.28125 3.738281 -4.234375 3.8125 -4.234375 L 9.390625 -4.234375 C 9.484375 -4.234375 9.515625 -4.28125 9.484375 -4.375 L 6.65625 -13.265625 C 6.644531 -13.328125 6.625 -13.359375 6.59375 -13.359375 C 6.5625 -13.359375 6.539062 -13.328125 6.53125 -13.265625 Z M 3.71875 -4.375 "/></g></g></g><g fill="#000000" fill-opacity="1"><g transform="translate(142.836487, 22.842947)"><g><path d="M 2.328125 0 C 2.140625 0 2.046875 -0.09375 2.046875 -0.28125 L 2.046875 -14.9375 C 2.046875 -15.125 2.140625 -15.21875 2.328125 -15.21875 L 3.3125 -15.21875 C 3.5 -15.21875 3.59375 -15.125 3.59375 -14.9375 L 3.59375 -0.28125 C 3.59375 -0.09375 3.5 0 3.3125 0 Z M 2.328125 0 "/></g></g></g></g></g></svg>